<svg xmlns="http://www.w3.org/2000/svg" viewBox="0 0 1600 900" preserveAspectRatio="xMidYMid slice"><defs><linearGradient id="g" x1="0" y1="0" x2="0" y2="1">
<stop offset="0%" stop-color="#F5E5B8"/><stop offset="55%" stop-color="#F0C898"/><stop offset="100%" stop-color="#D89878"/>
</linearGradient></defs><rect width="1600" height="900" fill="url(#g)"/>
<circle cx="1300" cy="180" r="70" fill="#FFE9A8" opacity="0.85"/>
<rect x="380" y="720" width="900" height="20" fill="#9E7E4A" opacity="0.3"/>
<polygon points="836,720 844,500 856,500 864,720" fill="#5E4528"/>
<g transform="translate(850 500)" fill="#5E4528">
<ellipse cx="0" cy="0" rx="6" ry="6"/>
<polygon points="0,0 60,-15 70,0"/><polygon points="0,0 -15,60 0,70"/>
<polygon points="0,0 -60,15 -70,0"/><polygon points="0,0 15,-60 0,-70"/>
</g><path d="M0 720 Q 400 690 800 705 T 1600 700 L 1600 900 L 0 900 Z" fill="#C8A868"/>
<path d="M0 760 Q 500 740 1000 755 T 1600 750 L 1600 900 L 0 900 Z" fill="#C8A868" opacity="0.7"/></svg>
